<svg width="240" height="130" xmlns="http://www.w3.org/2000/svg"><path fill="#fff" d="M.001 109.318C.001 120.723 9.682 130 21.579 130h196.85c11.894 0 21.573-9.28 21.573-20.682V20.681C240.002 9.277 230.322 0 218.428 0H21.577C9.682 0 0 9.279 0 20.68Z" style="stroke-width:1.636"/><path fill="#2ecc71" fill-rule="evenodd" d="M2.35 109.318c0 10.017 8.535 18.334 19.229 18.334h196.85c10.693 0 19.227-8.32 19.227-18.334V20.681c0-10.016-8.534-18.333-19.228-18.333H21.577c-10.694 0-19.228 8.32-19.228 18.333zM21.578 130C9.684 130 0 120.723 0 109.318V20.681C.001 9.28 9.68 0 21.577 0h196.851c11.895 0 21.574 9.277 21.574 20.681v88.64c0 11.402-9.68 20.681-21.574 20.681z" clip-rule="evenodd" style="stroke-width:1.636"/><path fill="#1d1d1b" d="M148.955 39.38h-26.141c.825 6.052 6.009 9.113 11.118 9.113 7.511 0 11.267-3.645 11.267-3.645v7.29s-3.756 3.649-11.267 3.649c-11.268 0-18.78-7.292-18.78-18.233s7.512-18.234 16.904-18.234c9.39 0 16.901 7.29 16.901 18.234v1.825zm-25.916-5.474h18.03c-1.053-4.883-4.434-7.29-9.018-7.29-4.58 0-7.96 2.407-9.012 7.293zM179.106 21.145v7.293s-5.473-1.825-9.116-1.825c-5.473 0-10.939 3.648-10.939 10.941 0 7.291 5.47 10.94 10.939 10.94 3.648 0 9.114-1.826 9.114-1.826v7.296s-3.646 1.823-9.114 1.823c-10.939 0-18.234-7.292-18.234-18.233S159.05 19.32 169.99 19.32c5.468 0 9.114 1.825 9.114 1.825zM218.342 37.556c0 10.94-7.293 18.233-18.232 18.233-10.941 0-18.234-7.291-18.234-18.233s7.293-18.234 18.234-18.234c10.939 0 18.232 7.293 18.232 18.234zm-29.173 0c0 7.292 5.473 10.94 10.941 10.94 5.47 0 10.939-3.648 10.939-10.94 0-7.295-5.473-10.94-10.939-10.94-5.47 0-10.941 3.645-10.941 10.94zM123.174 109.541c-3.714 0-7.426-1.236-7.426-1.236v-4.95s3.712 1.236 7.426 1.236c2.471 0 3.711-1.236 3.711-2.471 0-3.714-11.717-1.24-11.717-9.902 0-4.948 3.056-7.426 8.006-7.426 3.714 0 7.428 1.24 7.428 1.24v4.948s-3.714-1.236-7.428-1.236c-2.472 0-3.712 1.236-3.712 2.472 0 3.714 12.375 1.238 12.375 9.901-.002 4.95-3.716 7.426-8.663 7.426zM151.881 86.032v4.948s-3.711-1.236-6.187-1.236c-3.712 0-7.426 2.472-7.426 7.424 0 4.95 3.714 7.425 7.426 7.425 2.476 0 6.187-1.238 6.187-1.238v4.948s-2.473 1.24-6.187 1.24c-7.426 0-12.374-4.95-12.374-12.375 0-7.426 4.948-12.376 12.374-12.376 3.714 0 6.187 1.24 6.187 1.24zM178.663 97.168c0 7.425-4.95 12.375-12.376 12.375-7.426 0-12.375-4.95-12.375-12.375 0-7.426 4.95-12.376 12.375-12.376 7.426 0 12.376 4.95 12.376 12.376zm-19.802 0c0 4.95 3.712 7.425 7.426 7.425s7.426-2.473 7.426-7.425c0-4.95-3.712-7.426-7.426-7.426s-7.426 2.476-7.426 7.426zM195.64 84.792v4.95c-4.95 0-9.902 1.238-9.902 7.426v12.375h-4.948v-24.75h4.948v9.9c.002-6.187 3.713-9.9 9.901-9.9zM218.161 98.406h-17.226c.545 4.109 3.961 6.187 7.327 6.187 4.95 0 7.426-2.473 7.426-2.473v4.947s-2.476 2.476-7.426 2.476c-7.426 0-12.376-4.95-12.376-12.375 0-7.426 4.95-12.376 11.138-12.376s11.135 4.95 11.135 12.376v1.238zm-17.078-3.712h11.881c-.692-3.317-2.92-4.95-5.938-4.95-3.023 0-5.248 1.633-5.943 4.95z" style="stroke-width:1.636"/><g transform="translate(-44.151 174.2)" stroke="#fff" stroke-width="1.859"><rect x="236.495" y="-112.07" width="29.127" height="15.803" rx="7.902" fill="#bf3122"/><rect x="220.382" y="-112.07" width="29.127" height="15.803" rx="7.902" fill="#de4523"/><rect x="204.269" y="-112.07" width="29.127" height="15.803" rx="7.902" fill="#ef7e1a"/><rect x="188.156" y="-112.07" width="29.127" height="15.803" rx="7.902" fill="#f5c100"/><rect x="172.043" y="-112.07" width="29.127" height="15.803" rx="7.902" fill="#2ecc71"/><rect x="155.93" y="-112.07" width="29.127" height="15.803" rx="7.902" fill="#1e8f4e"/></g><path fill="#2ecc71" d="M101.455 19.152c1.589-.132 3.065 1.342 2.93 2.93-.198 2.267-3.016 53.75-19.492 70.226-15.79 15.79-34.397 12.085-46.547 3.35a13.207 13.207 0 0 1-.492-.375l-10.955 10.935a6.777 6.777 0 0 1-9.581-9.582l10.938-10.95a12.93 12.93 0 0 1-.38-.494c-8.731-12.15-12.439-30.756 3.353-46.548 16.476-16.477 67.96-19.298 70.226-19.49Z" style="stroke-width:1.636"/><path fill="#fff" d="M63.763 81.698c8.306 0 13.461-4.29 13.461-11.142 0-5.15-3.886-9.008-9.173-9.412v-.216c4.127-.62 7.31-4.182 7.31-8.443 0-5.96-4.585-9.71-11.894-9.71H50.6c-2.562 0-4.074 1.565-4.074 4.235v30.423c0 2.699 1.512 4.263 4.074 4.263zM60.526 58.96h-5.852V48.844h6.686c3.805 0 5.99 1.78 5.99 4.91 0 3.288-2.481 5.206-6.824 5.206zm1.16 16.668h-7.012V64.327h6.823c4.802 0 7.417 1.942 7.417 5.583 0 3.723-2.536 5.718-7.227 5.718z" style="stroke-width:1.636"/></svg>