<svg xmlns="http://www.w3.org/2000/svg" width="240" height="162"><path style="fill:#fff;fill-opacity:1;stroke:none;stroke-width:2.65346;stroke-linecap:round;stroke-linejoin:round;paint-order:stroke fill markers" d="M0 98h239.178v30H0z"/><defs><clipPath id="l" clipPathUnits="userSpaceOnUse"><path d="M-503.056-291.81h841.89v595.277h-841.89z"/></clipPath><clipPath id="a" clipPathUnits="userSpaceOnUse"><path d="M-576.406-131.683h841.89v595.276h-841.89z"/></clipPath><clipPath id="b" clipPathUnits="userSpaceOnUse"><path d="M-480.445-91.617h841.89V503.66h-841.89z"/></clipPath><clipPath id="c" clipPathUnits="userSpaceOnUse"><path d="M-488.313-132.237h841.89v595.276h-841.89z"/></clipPath><clipPath id="d" clipPathUnits="userSpaceOnUse"><path d="M-519.714-136.177h841.89V459.1h-841.89z"/></clipPath><clipPath id="e" clipPathUnits="userSpaceOnUse"><path d="M-521.325-134.642h841.89v595.276h-841.89z"/></clipPath><clipPath id="f" clipPathUnits="userSpaceOnUse"><path d="M-532.144-130.648h841.89v595.276h-841.89z"/></clipPath><clipPath id="g" clipPathUnits="userSpaceOnUse"><path d="M-500.02-102.749h841.89v595.276h-841.89z"/></clipPath><clipPath id="h" clipPathUnits="userSpaceOnUse"><path d="M-522.55-115.224h841.89v595.276h-841.89z"/></clipPath><clipPath id="i" clipPathUnits="userSpaceOnUse"><path d="M-561.373-85.195h841.89v595.276h-841.89z"/></clipPath><clipPath id="j" clipPathUnits="userSpaceOnUse"><path d="M-562.786-87.568h841.89v595.276h-841.89z"/></clipPath><clipPath id="k" clipPathUnits="userSpaceOnUse"><path d="M-537.03-102.748h841.89v595.276h-841.89z"/></clipPath></defs><path fill="#fff" d="M239.174 27.41c0-15.112-12.296-27.41-27.408-27.41H27.411C12.295 0 .001 12.298.001 27.41v70.768c0 15.117 12.294 27.41 27.41 27.41h162.413A31.607 31.607 0 0 0 206 130h3.118c16.568 0 30.045-12.466 30.045-27.79v-3.793l.011-.239z" clip-path="url(#a)"/><path fill="#00803d" d="M27.411 115.826h26.252V44.318H27.41A17.647 17.647 0 0 0 9.76 61.965v36.211a17.65 17.65 0 0 0 17.65 17.65" clip-path="url(#b)"/><path fill="#7c7b7b" d="M23.179 19.799v9.751h-3.94V12.497h3.077l7.949 10.016V12.497h3.939V29.55h-3.17z"/><path fill="#7c7b7b" d="M44.774 26.187c.67 0 1.24-.139 1.704-.419.465-.28.843-.653 1.13-1.117a4.72 4.72 0 0 0 .61-1.597c.122-.6.184-1.214.184-1.839v-8.719h3.937v8.72a11.894 11.894 0 0 1-.444 3.314 7.635 7.635 0 0 1-1.37 2.692 6.413 6.413 0 0 1-2.353 1.814c-.953.437-2.085.658-3.398.658-1.362 0-2.522-.23-3.484-.695-.96-.464-1.742-1.084-2.34-1.863a7.608 7.608 0 0 1-1.321-2.7 12.062 12.062 0 0 1-.422-3.22v-8.72h3.94v8.72c0 .655.063 1.282.193 1.875a4.965 4.965 0 0 0 .623 1.585c.289.463.66.832 1.116 1.103.457.274 1.022.408 1.695.408" clip-path="url(#c)"/><path fill="#7c7b7b" d="M68.358 15.957h-5.186V29.55h-3.937V15.957h-5.212v-3.46h14.335zM70.306 29.55V12.497h7.686c.801 0 1.543.17 2.223.505.68.335 1.266.777 1.763 1.322.496.545.882 1.16 1.165 1.849.282.688.42 1.384.42 2.09a5.991 5.991 0 0 1-.742 2.906 5.283 5.283 0 0 1-2.044 2.041l3.917 6.34H80.25l-3.436-5.499h-2.569v5.5zm3.94-8.937h3.6c.464 0 .866-.216 1.203-.658.338-.441.504-1.004.504-1.692 0-.706-.192-1.265-.576-1.684-.384-.415-.801-.622-1.25-.622h-3.482zM86.638 12.497h3.94V29.55h-3.94zM93.506 21.215h7.4v3.46h-7.4z"/><path fill="#7c7b7b" d="m114.068 17.493-.53-.362a10.504 10.504 0 0 0-2.497-1.057 5.67 5.67 0 0 0-1.536-.214c-.675 0-1.19.119-1.551.36a1.185 1.185 0 0 0-.539 1.056l.24.722.685.514c.295.152.664.294 1.105.422.44.128.947.273 1.525.432a20.36 20.36 0 0 1 2.21.733 6.075 6.075 0 0 1 1.68.984c.464.393.822.87 1.069 1.43.247.56.373 1.234.373 2.017 0 .96-.181 1.772-.54 2.436a4.568 4.568 0 0 1-1.429 1.611 6.073 6.073 0 0 1-2.054.89 10.502 10.502 0 0 1-2.39.275 13.622 13.622 0 0 1-3.82-.565 15.906 15.906 0 0 1-1.825-.66 10.142 10.142 0 0 1-1.635-.889l1.732-3.436.647.457c.353.227.785.45 1.297.673.512.225 1.088.426 1.728.6a7.311 7.311 0 0 0 1.947.265c1.394 0 2.09-.426 2.09-1.273l-.312-.792-.865-.563a9.249 9.249 0 0 0-1.297-.47l-1.631-.481a14.214 14.214 0 0 1-2.044-.781 5.457 5.457 0 0 1-1.44-.974 3.443 3.443 0 0 1-.853-1.27 4.656 4.656 0 0 1-.275-1.682c0-.898.167-1.688.503-2.377a5.154 5.154 0 0 1 1.368-1.743 5.958 5.958 0 0 1 2.006-1.07 8.038 8.038 0 0 1 2.414-.358c.61 0 1.203.055 1.779.166a13.29 13.29 0 0 1 1.644.432 13.781 13.781 0 0 1 2.725 1.273z" clip-path="url(#d)"/><path fill="#7c7b7b" d="M117.624 20.88c0-1.024.18-2.046.551-3.063a8.47 8.47 0 0 1 1.609-2.725 8.134 8.134 0 0 1 2.584-1.947c1.015-.496 2.172-.743 3.47-.743 1.52 0 2.842.344 3.963 1.032a6.494 6.494 0 0 1 2.498 2.69l-3.026 2.112a3.661 3.661 0 0 0-.673-1.116l-.89-.72-.995-.384-.975-.108a3.509 3.509 0 0 0-1.825.457 4.085 4.085 0 0 0-1.273 1.176 5.298 5.298 0 0 0-.755 1.633 6.845 6.845 0 0 0-.254 1.85c0 .672.102 1.321.303 1.946a5.5 5.5 0 0 0 .838 1.657c.362.479.797.86 1.309 1.141a3.5 3.5 0 0 0 1.706.42l.997-.131.995-.41.868-.72c.253-.296.463-.662.624-1.092l3.242 1.898a5.168 5.168 0 0 1-1.119 1.681 6.852 6.852 0 0 1-1.668 1.247 8.569 8.569 0 0 1-4.036 1.033c-1.183 0-2.269-.252-3.253-.755a8.27 8.27 0 0 1-2.547-2.006 9.478 9.478 0 0 1-1.668-2.833 8.993 8.993 0 0 1-.6-3.22" clip-path="url(#e)"/><path fill="#7c7b7b" d="M141.499 29.694c-1.216 0-2.322-.247-3.315-.744a8.3 8.3 0 0 1-2.558-1.957 8.878 8.878 0 0 1-1.657-2.776 9.026 9.026 0 0 1-.59-3.216c0-1.12.204-2.202.614-3.244a8.757 8.757 0 0 1 1.704-2.751 8.34 8.34 0 0 1 2.595-1.896c1-.472 2.094-.708 3.277-.708 1.216 0 2.324.247 3.315.743a8.24 8.24 0 0 1 2.56 1.97 8.91 8.91 0 0 1 1.644 2.786 9.104 9.104 0 0 1 .576 3.171 8.791 8.791 0 0 1-.612 3.242 8.85 8.85 0 0 1-1.692 2.752 8.313 8.313 0 0 1-2.582 1.908 7.472 7.472 0 0 1-3.28.72m-4.108-8.644c0 .655.094 1.29.278 1.907.183.617.448 1.165.792 1.646a3.884 3.884 0 0 0 1.297 1.154 3.641 3.641 0 0 0 1.79.43c.689 0 1.289-.152 1.8-.457a4.11 4.11 0 0 0 1.287-1.187 5.284 5.284 0 0 0 .768-1.657 7.26 7.26 0 0 0 .252-1.885c0-.657-.093-1.295-.278-1.91a5.131 5.131 0 0 0-.803-1.634 4.01 4.01 0 0 0-1.298-1.13c-.512-.28-1.097-.419-1.754-.419-.687 0-1.287.148-1.799.444a4.094 4.094 0 0 0-1.286 1.165 5.26 5.26 0 0 0-.78 1.644 6.76 6.76 0 0 0-.266 1.889" clip-path="url(#f)"/><path fill="#7c7b7b" d="M151.97 29.55V12.497h7.686c.8 0 1.54.17 2.222.505a5.892 5.892 0 0 1 1.765 1.322c.497.545.883 1.16 1.165 1.849a5.539 5.539 0 0 1 .42 2.09 6.16 6.16 0 0 1-.19 1.522 6.029 6.029 0 0 1-.554 1.384 5.274 5.274 0 0 1-2.041 2.041l3.917 6.34h-4.445l-3.435-5.499h-2.571v5.5zm3.939-8.937h3.603c.464 0 .865-.216 1.2-.658.338-.441.506-1.004.506-1.692 0-.706-.192-1.265-.576-1.684-.384-.415-.803-.622-1.249-.622h-3.487zM180.289 26.092v3.458h-11.987V12.497h11.768v3.46h-7.83v3.314h6.727v3.193h-6.726v3.628z"/><path fill="#87bd25" d="M97.613 115.826H53.66V44.318h43.952z"/><path fill="#fc0" d="M141.562 115.826h-43.95V44.318h43.95z"/><path fill="#ef7d00" d="M185.515 115.826h-43.953V44.318h43.953z"/><path fill="#74ab7e" d="m27.522 85.165 4.854-12.702 4.666 12.702zm7.163-20.97h-4.277L17.19 96.065h6.2l2.304-6.097h13.124l2.262 6.097h6.775z"/><path fill="#bdd684" d="M70.609 91.26v-9.006h3.027c5.625.045 7.452 1.708 7.452 4.341 0 3.28-2.405 4.665-7.068 4.665zm0-13.441v-8.823h1.827c4.855 0 6.825 1.432 6.825 4.297 0 2.632-1.875 4.433-5.817 4.48zm2.597-13.627h-8.752v31.872h9.855c9.28 0 13.078-3.74 13.078-9.469 0-3.142-1.733-5.634-5.339-7.066 2.068-1.618 3.51-3.88 3.51-6.792 0-4.712-3.318-8.545-12.352-8.545" clip-path="url(#g)"/><path fill="#ffdf7d" d="M120.327 63.73c-8.556 0-15.14 6.376-15.14 16.353 0 10.027 6.057 16.447 15.237 16.447 5.912 0 10.142-2.31 12.784-6.7l-4.615-3.372c-1.873 3.05-4.468 4.76-7.929 4.76-5.865 0-9.135-4.067-9.135-11.181 0-6.652 3.365-10.992 8.557-10.992 3.414 0 5.912 1.708 7.115 4.618l5.863-2.171c-1.922-4.48-5.43-7.761-12.737-7.761" clip-path="url(#h)"/><path fill="#fff" d="M206 129.998c-16.566 0-30.043-12.466-30.043-27.788V57.936c0-15.324 13.477-27.79 30.043-27.79h3.118c16.568 0 30.045 12.466 30.045 27.79v44.274c0 15.322-13.477 27.788-30.045 27.788z" clip-path="url(#i)"/><path fill="#e63312" d="M209.118 124.761H206c-13.7 0-24.806-10.096-24.806-22.55V57.935c0-12.455 11.106-22.551 24.806-22.551h3.118c13.702 0 24.808 10.096 24.808 22.55v44.275c0 12.455-11.106 22.551-24.808 22.551" clip-path="url(#j)"/><path fill="#fff" d="M194.496 100.849V58.353h27.653v8.684h-16.875v7.45h11.64v8.747h-11.64v8.93h17.243v8.685z"/><path fill="#f8b472" d="M152.28 91.262V69.09h3.463c7.642 0 11.345 4.065 11.345 11.04 0 6.376-3.992 11.133-12.113 11.133zm3.512-27.07h-9.664v31.872h8.99c11.392 0 18.315-6.788 18.315-15.935 0-9.976-6.442-15.937-17.641-15.937" clip-path="url(#k)"/><path clip-path="url(#l)" style="fill:#093c6b;fill-opacity:1;fill-rule:nonzero;stroke:none" d="M0 33.997v-6.59C0 12.297 12.298-.003 27.412-.003H211.77v.002c15.112 0 27.408 12.296 27.408 27.408v6.59H0z" transform="matrix(1 0 0 -1 0 161.997)"/><path d="M19.503 143.896v8.617h-3.48v-15.069h2.716l7.025 8.85v-8.85h3.481v15.07h-2.802zM42.722 149.457v3.056h-10.59v-15.069h10.4v3.056h-6.92v2.93h5.943v2.822h-5.943v3.205zM51.318 149.542q.892 0 1.507-.36.616-.383.998-.998.382-.616.53-1.401.17-.807.17-1.634v-7.705h3.48v7.705q0 1.57-.402 2.929-.382 1.358-1.21 2.377-.807 1.018-2.08 1.613-1.252.573-2.993.573-1.804 0-3.077-.616-1.274-.615-2.08-1.634-.786-1.04-1.168-2.398-.36-1.359-.36-2.844v-7.705h3.48v7.705q0 .87.17 1.655t.552 1.4q.382.616.976.977.616.361 1.507.361zM71.29 149.457v3.056H60.7v-15.069h10.4v3.056h-6.92v2.93h5.943v2.822H64.18v3.205zM90.817 148.65q0 .977-.404 1.699-.403.721-1.103 1.21-.7.466-1.635.72-.933.234-1.973.234h-7.344v-15.069h8.384q.785 0 1.422.34.636.34 1.082.891.446.53.68 1.231.254.68.254 1.401 0 1.082-.552 2.038-.53.955-1.613 1.443 1.295.382 2.038 1.358.764.976.764 2.505zm-3.545-.7q0-.7-.403-1.188-.403-.489-1.019-.489H81.84v3.29h3.863q.679 0 1.124-.445.446-.446.446-1.168zm-5.433-7.534v3.12h3.417q.573 0 1.019-.383.445-.382.445-1.188 0-.743-.403-1.146-.382-.403-.934-.403zM103.466 149.457v3.056h-10.59v-15.069h10.4v3.056h-6.92v2.93h5.943v2.822h-5.943v3.205zM105.589 152.513v-15.069h6.791q1.062 0 1.953.446.913.446 1.57 1.167.659.722 1.02 1.634.382.913.382 1.847 0 .7-.17 1.358-.17.637-.488 1.21-.319.573-.786 1.04-.445.446-1.018.764l3.31 5.603h-3.926l-2.886-4.86h-2.271v4.86zm3.48-7.895h3.184q.616 0 1.061-.573.446-.594.446-1.507 0-.934-.51-1.486-.509-.552-1.103-.552h-3.077zM130.4 149.457v3.056h-10.591v-15.069h10.4v3.056h-6.92v2.93h5.944v2.822h-5.943v3.205zM131.334 144.851q0-1.358.51-2.695.508-1.358 1.485-2.42.976-1.06 2.377-1.719 1.4-.658 3.184-.658 2.122 0 3.671.913 1.57.913 2.335 2.377l-2.674 1.868q-.255-.595-.658-.977-.382-.403-.85-.636-.466-.255-.954-.34-.488-.106-.955-.106-.998 0-1.74.403-.744.404-1.232 1.04-.488.637-.721 1.443-.234.807-.234 1.635 0 .891.276 1.719.276.828.785 1.464.531.637 1.253 1.02.742.36 1.655.36.467 0 .955-.106.51-.127.955-.36.467-.256.85-.638.381-.403.615-.976l2.844 1.677q-.34.827-1.019 1.485-.658.658-1.528 1.104-.87.446-1.847.68-.976.233-1.91.233-1.634 0-3.014-.658-1.358-.68-2.356-1.783-.976-1.104-1.528-2.505-.53-1.4-.53-2.844zM159.774 137.444v15.07h-3.48v-6.177h-6.007v6.176h-3.48v-15.069h3.48v5.837h6.006v-5.837zM166.142 143.896v8.617h-3.481v-15.069h2.716l7.026 8.85v-8.85h3.48v15.07h-2.801zM185.243 149.542q.892 0 1.507-.36.616-.383.998-.998.382-.616.53-1.401.17-.807.17-1.634v-7.705h3.481v7.705q0 1.57-.403 2.929-.382 1.358-1.21 2.377-.807 1.018-2.08 1.613-1.252.573-2.993.573-1.804 0-3.077-.616-1.274-.615-2.08-1.634-.785-1.04-1.167-2.398-.361-1.359-.361-2.844v-7.705h3.48v7.705q0 .87.17 1.655t.552 1.4q.382.616.976.977.616.361 1.507.361zM198.105 143.896v8.617h-3.48v-15.069h2.716l7.025 8.85v-8.85h3.481v15.07h-2.801zM221.091 151.028q-1.719 1.592-3.969 1.592-1.485 0-2.801-.552-1.316-.573-2.314-1.592-.976-1.019-1.55-2.44-.572-1.444-.572-3.163 0-1.55.573-2.93.573-1.379 1.57-2.398 1.02-1.018 2.399-1.613 1.38-.594 2.971-.594 2.101 0 3.672.891 1.57.87 2.356 2.399l-2.59 1.952q-.509-1.018-1.485-1.57-.955-.573-2.08-.573-.87 0-1.592.36-.7.34-1.21.977-.51.615-.785 1.443-.276.828-.276 1.783 0 .976.297 1.804.297.828.828 1.443.53.595 1.252.934.743.34 1.634.34 2.038 0 3.672-1.89v-.466h-2.929v-2.526h5.816v7.874h-2.887z" style="font-weight:800;font-size:21.2243px;line-height:1.25;font-family:Raleway;-inkscape-font-specification:'Raleway Ultra-Bold';fill:#fff;stroke-width:.530607"/></svg>